<?xml version="1.0" encoding="UTF-8"?>
<svg width="60px" height="60px" viewBox="0 0 60 60" version="1.1" xmlns="http://www.w3.org/2000/svg" xmlns:xlink="http://www.w3.org/1999/xlink">
    <!-- Generator: Sketch 41.2 (35397) - http://www.bohemiancoding.com/sketch -->
    <title>station</title>
    <desc>Created with Sketch.</desc>
    <defs>
        <path d="M17.1428571,28.4482759 C23.2971429,28.4482759 28.2857143,23.4310345 28.2857143,17.2413793 C28.2857143,11.0517241 23.2971429,6.03448276 17.1428571,6.03448276 C10.9885714,6.03448276 6,11.0517241 6,17.2413793 C6,23.4310345 10.9885714,28.4482759 17.1428571,28.4482759 L17.1428571,28.4482759 Z M22.1468571,33.7362069 C29.1737143,31.5827586 34.2857143,25.012931 34.2857143,17.2413793 C34.2857143,7.71896552 26.6108571,0 17.1428571,0 C7.67485714,0 0,7.71896552 0,17.2413793 C0,25.012931 5.112,31.5827586 12.1388571,33.7362069 L17.1428571,48.2758621 L22.1468571,33.7362069 L22.1468571,33.7362069 Z" id="path-1"></path>
    </defs>
    <g id="Icons" stroke="none" stroke-width="1" fill="none" fill-rule="evenodd">
        <g id="station">
            <g id="datalocation" transform="translate(12.000000, 10.000000)">
                <g id="Datalocation">
                    <g id="colored">
                        <g id="Imported-Layers">
                            <g id="Group-710" transform="translate(0.857143, 0.862069)">
                                <g id="Fill-708-Clipped">
                                    <mask id="mask-2" fill="white">
                                        <use xlink:href="#path-1"></use>
                                    </mask>
                                    <g id="path-1"></g>
                                    <polygon id="Fill-708" fill="#FFDD57" mask="url(#mask-2)" points="0 0 34.2857143 0 34.2857143 48.2758621 0 48.2758621"></polygon>
                                </g>
                            </g>
                            <path d="M18,50 C17.6348571,50 17.3091429,49.7672414 17.19,49.4198276 L12.3265714,35.2896552 C4.93457143,32.8301724 0,25.9793103 0,18.1034483 C0,8.12068966 8.07514286,0 18,0 C27.9248571,0 36,8.12068966 36,18.1034483 C36,25.9793103 31.0654286,32.8301724 23.6734286,35.2896552 L18.81,49.4198276 C18.6908571,49.7672414 18.3651429,50 18,50 L18,50 Z M18,1.72413793 C9.01971429,1.72413793 1.71428571,9.07155172 1.71428571,18.1034483 C1.71428571,25.362931 6.348,31.6603448 13.2454286,33.7741379 C13.5085714,33.8543103 13.7168571,34.0560345 13.806,34.3163793 L18,46.5025862 L22.194,34.3163793 C22.2831429,34.0560345 22.4914286,33.8543103 22.7545714,33.7741379 C29.652,31.6603448 34.2857143,25.362931 34.2857143,18.1034483 C34.2857143,9.07155172 26.9802857,1.72413793 18,1.72413793 L18,1.72413793 Z" id="Fill-711" fill="#314E55"></path>
                            <path d="M18,6 C11.383,6 6,11.383 6,18 C6,24.617 11.383,30 18,30 C24.617,30 30,24.617 30,18 C30,11.383 24.617,6 18,6 L18,6 Z" id="Fill-711-path" fill="#FFDD57"></path>
                        </g>
                    </g>
                </g>
            </g>
        </g>
    </g>
</svg>